<?xml version="1.0" encoding="utf-8"?>
<!-- Generator: Adobe Illustrator 15.1.0, SVG Export Plug-In  -->
<!DOCTYPE svg PUBLIC "-//W3C//DTD SVG 1.1//EN" "http://www.w3.org/Graphics/SVG/1.1/DTD/svg11.dtd" [
	<!ENTITY ns_flows "http://ns.adobe.com/Flows/1.0/">
]>
<svg version="1.1"
	 xmlns="http://www.w3.org/2000/svg" xmlns:xlink="http://www.w3.org/1999/xlink" xmlns:a="http://ns.adobe.com/AdobeSVGViewerExtensions/3.0/"
	 x="0px" y="0px" width="395px" height="468px" viewBox="0 0 395 468" overflow="visible" enable-background="new 0 0 395 468"
	 xml:space="preserve">
<defs>
</defs>
<rect x="45.531" y="21.748" fill="#D1D3D4" stroke="#9FA1A4" stroke-miterlimit="10" width="216" height="363.229"/>
<rect x="55.143" y="31.279" fill="#FFFFFF" stroke="#9FA1A4" stroke-miterlimit="10" width="196.775" height="327.309"/>
<text transform="matrix(1 0 0 1 55.1431 99.4463)" font-family="'MyriadPro-Regular'" font-size="12">Header</text>
<rect x="55.143" y="114.78" fill="none" width="112.523" height="86"/>
<text transform="matrix(1 0 0 1 55.1431 121.1704)"><tspan x="0" y="0" font-family="'MyriadPro-Regular'" font-size="9">dolor sit amet, consectetuer </tspan><tspan x="0" y="10.8" font-family="'MyriadPro-Regular'" font-size="9">adipiscing elit, sed diam </tspan><tspan x="0" y="21.6" font-family="'MyriadPro-Regular'" font-size="9">nonummy nibh euismod </tspan><tspan x="0" y="32.4" font-family="'MyriadPro-Regular'" font-size="9">tincidunt ut laoreet dolore </tspan><tspan x="0" y="43.2" font-family="'MyriadPro-Regular'" font-size="9">magna aliquam erat volutpat. </tspan><tspan x="0" y="54" font-family="'MyriadPro-Regular'" font-size="9">Ut wisi enim ad minim </tspan><tspan x="0" y="64.8" font-family="'MyriadPro-Regular'" font-size="9">veniam, quis nostrud exerci </tspan><tspan x="0" y="75.6" font-family="'MyriadPro-Regular'" font-size="9">tation ullamcorper suscipit </tspan></text>
<text transform="matrix(1 0 0 1 175.063 121.4468)" font-family="'MyriadPro-Regular'" font-size="11">Average: 4.5</text>
<text transform="matrix(1 0 0 1 175.062 147.6978)" font-family="'MyriadPro-Regular'" font-size="11">Median: 3</text>
<text transform="matrix(1 0 0 1 175.062 172.1133)" font-family="'MyriadPro-Regular'" font-size="11">Category: Financ</text>
<line fill="none" stroke="#000000" stroke-miterlimit="10" x1="74.729" y1="219.447" x2="241.396" y2="219.447"/>
<text transform="matrix(1 0 0 1 55.1431 248.8511)" font-family="'MyriadPro-Regular'" font-size="12">Header</text>
<rect x="55.143" y="264.185" fill="none" width="112.523" height="86.001"/>
<text transform="matrix(1 0 0 1 55.1431 270.5757)"><tspan x="0" y="0" font-family="'MyriadPro-Regular'" font-size="9">dolor sit amet, consectetuer </tspan><tspan x="0" y="10.8" font-family="'MyriadPro-Regular'" font-size="9">adipiscing elit, sed diam </tspan><tspan x="0" y="21.6" font-family="'MyriadPro-Regular'" font-size="9">nonummy nibh euismod </tspan><tspan x="0" y="32.4" font-family="'MyriadPro-Regular'" font-size="9">tincidunt ut laoreet dolore </tspan><tspan x="0" y="43.199" font-family="'MyriadPro-Regular'" font-size="9">magna aliquam erat volutpat. </tspan><tspan x="0" y="54" font-family="'MyriadPro-Regular'" font-size="9">Ut wisi enim ad minim </tspan><tspan x="0" y="64.8" font-family="'MyriadPro-Regular'" font-size="9">veniam, quis nostrud exerci </tspan><tspan x="0" y="75.6" font-family="'MyriadPro-Regular'" font-size="9">tation ullamcorper suscipit </tspan></text>
<text transform="matrix(1 0 0 1 176.063 270.8521)" font-family="'MyriadPro-Regular'" font-size="11">Average: 4.5</text>
<text transform="matrix(1 0 0 1 176.062 297.103)" font-family="'MyriadPro-Regular'" font-size="11">Median: 3</text>
<text transform="matrix(1 0 0 1 176.062 321.519)" font-family="'MyriadPro-Regular'" font-size="11">Category: Financ</text>
<path fill="#939598" d="M240.928,308.447c3.218-5.5,1.134-2.334,2.468-7s1.334-4.666,2-15c0.473-7.338-0.667-2-4-6
	s-2.531-9.666-2.531-9.666l-13.802-17l2-14.334c0,0,1.001,5-7.333,5.667s-27.251-10.001-31.584-12.667s-35.75-19.666-38.083-30.333
	s1.667-22.333,1.667-22.333s6-8.667,17-7c11,1.666,39.999,11.333,47.666,12c7.667,0.666,45.135,0.166,45.135,0.166v-32
	c0,0,41.365,41.167,43.865,40.834c2.5-0.334,32,36.666,34,44.166s25.5,95,20,121.5s0.664,37.5,0.832,41s21.168,59,30.668,63.5
	s0,3.479,0,3.479l-216.833-0.312l-34.667-82.667h82c0,0,0-48.75,12.667-58.667"/>
<path fill="#939598" d="M46.896,159.947c0,0-12,9-17.5,10s-33,7.167-29,23.834c4,16.666,24.5,19.832,28,19.999s18.5,0,18.5,0
	V159.947z"/>
<path fill="#939598" d="M46.531,234.447c0,0-17.53,7.5-23.083,15s-16.052,32.5-13.552,41.5s12,13.5,20.5,11.5s22-9.5,23-11
	s6.865-28,0-36.5s-6.865-4.5-6.865-12.5S46.531,234.447,46.531,234.447z"/>
<path fill="#939598" d="M46.531,299.519c0,0-20.53,11.506-23.083,24.217s-2.052,17.211,2.948,21.711s23,6.5,27-2.5s6-21,2-28
	s-8.865-9.5-8.865-9.5V299.519z"/>
<polygon fill="#939598" points="135.646,169.697 135.646,143.031 95.146,156.364 "/>
<polygon fill="#939598" points="187.148,143.031 187.148,169.697 227.648,156.365 "/>
<line fill="none" stroke="#000000" stroke-miterlimit="10" x1="56.143" y1="5.113" x2="252.918" y2="5.113"/>
<line fill="none" stroke="#000000" stroke-miterlimit="10" x1="56.143" y1="0" x2="56.143" y2="8.5"/>
<line fill="none" stroke="#000000" stroke-miterlimit="10" x1="253.142" y1="0" x2="253.142" y2="8.5"/>
</svg>
