<?xml version="1.0" encoding="utf-8"?>
<!-- Generator: Adobe Illustrator 15.1.0, SVG Export Plug-In  -->
<!DOCTYPE svg PUBLIC "-//W3C//DTD SVG 1.1//EN" "http://www.w3.org/Graphics/SVG/1.1/DTD/svg11.dtd" [
	<!ENTITY ns_flows "http://ns.adobe.com/Flows/1.0/">
]>
<svg version="1.1"
	 xmlns="http://www.w3.org/2000/svg" xmlns:xlink="http://www.w3.org/1999/xlink" xmlns:a="http://ns.adobe.com/AdobeSVGViewerExtensions/3.0/"
	 x="0px" y="0px" width="195px" height="258px" viewBox="0 0 195 258" overflow="visible" enable-background="new 0 0 195 258"
	 xml:space="preserve">
<style type="text/css">
<![CDATA[
]]>
</style>
<defs>
</defs>
<rect x="0.5" y="0.5" fill="#D1D3D4" stroke="#9FA1A4" stroke-miterlimit="10" width="152.974" height="257.242"/>
<rect x="7.307" y="7.25" fill="#FFFFFF" stroke="#9FA1A4" stroke-miterlimit="10" width="139.359" height="231.804"/>
<polygon fill="#C9C9C9" points="28.072,74.061 34.872,66.461 41.672,79.661 34.872,79.661 34.872,93.261 26.072,84.861 "/>
<polygon fill="#C9C9C9" points="38.472,83.661 38.472,101.261 64.872,101.261 51.672,94.861 64.872,77.261 46.072,89.261 "/>
<polygon fill="#C9C9C9" points="43.672,81.661 46.872,84.461 70.072,70.061 56.872,66.461 56.872,50.861 41.672,50.861 
	41.672,72.461 45.271,79.861 "/>
<polygon fill="#C9C9C9" points="71.072,74.261 56.872,93.261 70.072,100.261 70.072,106.861 94.071,106.861 94.071,99.661 
	81.672,99.661 81.271,89.261 "/>
<polygon fill="#C9C9C9" points="73.672,72.061 83.271,86.861 83.271,96.461 95.672,96.461 95.672,84.461 104.872,79.861 
	89.271,77.261 89.271,50.861 73.672,50.861 "/>
<polygon fill="#C9C9C9" points="70.072,66.461 59.672,62.861 59.672,40.861 70.072,34.861 64.872,47.261 70.072,48.461 "/>
<polygon fill="#C9C9C9" points="70.072,44.461 73.672,46.861 92.071,46.861 92.071,74.261 104.872,77.261 104.872,66.461 
	98.872,64.061 113.271,58.861 113.271,34.861 73.672,34.861 "/>
<polygon fill="#C9C9C9" points="98.472,86.861 113.271,82.061 113.271,93.261 126.872,90.561 120.472,84.461 130.071,82.061 
	136.472,94.861 122.472,115.661 122.472,103.661 98.472,106.861 98.472,98.86 "/>
<polygon fill="#C9C9C9" points="104.872,63.661 117.472,59.661 126.872,70.861 126.872,77.261 117.472,82.061 117.472,89.261 
	115.872,89.261 115.872,77.261 108.872,79.861 108.472,66.461 "/>
<polygon fill="#C9C9C9" points="55.872,46.861 38.472,46.861 38.472,63.261 33.872,59.661 23.672,73.661 23.672,84.461 
	14.072,90.561 14.072,62.061 26.072,49.261 26.072,37.261 55.872,37.261 "/>
<polygon fill="#C9C9C9" points="24.472,89.261 34.972,98.86 34.972,110.061 7.307,118.061 7.307,94.861 16.872,94.861 "/>
<polygon fill="#C9C9C9" points="98.472,110.061 119.672,106.861 119.672,119.661 124.071,119.661 134.071,103.661 146.666,103.661 
	146.666,131.661 117.472,131.661 115.872,121.661 91.672,121.261 "/>
<polygon fill="#C9C9C9" points="115.872,46.461 115.872,56.061 121.271,56.061 129.271,67.661 129.271,77.261 146.666,77.261 
	146.666,34.861 122.071,34.861 "/>
<polygon fill="#C9C9C9" points="125.901,180.261 119.102,187.86 112.301,174.66 119.102,174.66 119.102,161.061 127.901,169.461 "/>
<polygon fill="#C9C9C9" points="115.502,170.66 115.502,153.061 89.102,153.061 102.301,159.461 89.102,177.061 107.901,165.061 "/>
<polygon fill="#C9C9C9" points="110.301,172.66 107.102,169.86 83.901,184.261 97.102,187.86 97.102,203.46 112.301,203.46 
	112.301,181.86 108.701,174.461 "/>
<polygon fill="#C9C9C9" points="82.901,180.061 97.102,161.061 83.901,154.061 83.901,147.461 59.902,147.461 59.902,154.66 
	72.301,154.66 72.702,165.061 "/>
<polygon fill="#C9C9C9" points="80.301,182.261 70.702,167.461 70.702,157.86 58.301,157.86 58.301,169.86 49.101,174.461 
	64.702,177.061 64.702,203.46 80.301,203.46 "/>
<polygon fill="#C9C9C9" points="83.901,187.86 94.301,191.461 94.301,213.46 83.901,219.46 89.102,207.061 83.901,205.86 "/>
<polygon fill="#C9C9C9" points="83.901,209.86 80.301,207.46 61.902,207.46 61.902,180.061 49.101,177.061 49.101,187.86 
	55.101,190.261 40.702,195.46 40.702,219.46 80.302,219.46 "/>
<polygon fill="#C9C9C9" points="55.501,167.461 40.702,172.261 40.702,161.061 27.101,163.761 33.501,169.86 23.902,172.261 
	17.501,159.461 31.501,138.66 31.501,150.66 55.501,147.461 55.501,155.461 "/>
<polygon fill="#C9C9C9" points="49.101,190.66 36.501,194.661 27.101,183.461 27.101,177.061 36.501,172.261 36.501,165.061 
	38.101,165.061 38.101,177.061 45.101,174.461 45.501,187.86 "/>
<polygon fill="#C9C9C9" points="98.102,207.46 115.502,207.46 115.502,191.061 120.102,194.661 130.301,180.66 130.301,169.86 
	139.901,163.761 139.901,192.261 127.901,205.061 127.901,217.061 98.102,217.061 "/>
<polygon fill="#C9C9C9" points="129.502,165.061 119.002,155.461 119.002,144.261 146.666,136.261 146.666,159.461 137.102,159.461 
	"/>
<polygon fill="#C9C9C9" points="55.501,144.261 34.301,147.461 34.301,134.66 29.902,134.66 19.902,150.66 7.307,150.66 
	7.307,122.66 36.501,122.66 38.101,132.66 62.301,133.061 "/>
<polygon fill="#C9C9C9" points="38.101,207.86 38.101,198.261 32.702,198.261 24.702,186.66 24.702,177.061 7.307,177.061 
	7.307,219.461 31.902,219.46 "/>
<polygon fill="#C9C9C9" points="91.672,124.86 112.301,124.86 115.502,136.151 132.834,134.36 115.502,142.121 115.502,147.461 
	89.102,147.461 89.102,138.66 59.902,142.121 66.871,131.661 "/>
<polygon fill="#C9C9C9" points="91.672,110.86 83.901,122.66 64.872,127.86 40.702,127.86 38.472,115.661 64.872,101.261 
	66.871,106.861 70.072,111.86 "/>
<rect x="7.307" y="15.61" fill="#E6E7E8" width="54.994" height="18"/>
<line fill="none" stroke="#000000" stroke-miterlimit="10" x1="7.307" y1="15.61" x2="146.666" y2="15.61"/>
<line fill="none" stroke="#000000" stroke-miterlimit="10" x1="7.307" y1="15.61" x2="7.307" y2="33.61"/>
<line fill="none" stroke="#000000" stroke-miterlimit="10" x1="7.307" y1="33.61" x2="146.666" y2="33.61"/>
<rect x="10.721" y="20.253" fill="none" width="184.195" height="11.25"/>
<text transform="matrix(1 0 0 1 10.7207 28.7734)" font-family="'MyriadPro-Regular'" font-size="12">Overview   </text>
<line fill="none" stroke="#000000" stroke-miterlimit="10" x1="62.301" y1="15.61" x2="62.301" y2="33.61"/>
<line fill="none" stroke="#000000" stroke-miterlimit="10" x1="110.221" y1="15.61" x2="110.221" y2="33.61"/>
<line fill="none" stroke="#BCBEC0" stroke-miterlimit="10" x1="146.666" y1="15.61" x2="184.471" y2="15.61"/>
<line fill="none" stroke="#BCBEC0" stroke-miterlimit="10" x1="184.471" y1="15.61" x2="184.471" y2="33.61"/>
<line fill="none" stroke="#BCBEC0" stroke-miterlimit="10" x1="146.666" y1="33.61" x2="184.471" y2="33.61"/>
<text transform="matrix(1 0 0 1 65.0723 28.5034)" font-family="'MyriadPro-Regular'" font-size="12">Average   </text>
<text transform="matrix(1 0 0 1 115.502 28.5034)"><tspan x="0" y="0" font-family="'MyriadPro-Regular'" font-size="12">Demo</tspan><tspan x="30.6" y="0" fill="#A7A9AC" font-family="'MyriadPro-Regular'" font-size="12">grapics  </tspan></text>
<text transform="matrix(1 0 0 1 185.3877 28.5034)" fill="#A7A9AC" font-family="'MyriadPro-Regular'" font-size="12">...</text>
</svg>
