<?xml version="1.0" encoding="utf-8"?>
<!-- Generator: Adobe Illustrator 15.1.0, SVG Export Plug-In  -->
<!DOCTYPE svg PUBLIC "-//W3C//DTD SVG 1.1//EN" "http://www.w3.org/Graphics/SVG/1.1/DTD/svg11.dtd" [
	<!ENTITY ns_flows "http://ns.adobe.com/Flows/1.0/">
]>
<svg version="1.1"
	 xmlns="http://www.w3.org/2000/svg" xmlns:xlink="http://www.w3.org/1999/xlink" xmlns:a="http://ns.adobe.com/AdobeSVGViewerExtensions/3.0/"
	 x="0px" y="0px" width="154px" height="258px" viewBox="0 0 154 258" overflow="visible" enable-background="new 0 0 154 258"
	 xml:space="preserve">
<style type="text/css">
<![CDATA[
]]>
</style>
<defs>
</defs>
<rect x="0.5" y="0.5" fill="#D1D3D4" stroke="#9FA1A4" stroke-miterlimit="10" width="152.974" height="257.242"/>
<rect x="7.307" y="7.25" fill="#FFFFFF" stroke="#9FA1A4" stroke-miterlimit="10" width="139.359" height="231.804"/>
<polygon fill="#D1D3D4" points="86.486,137.062 90.221,130.36 96.486,128.121 101.971,132.591 111.471,134.735 111.471,143.062 
	111.471,150.409 104.139,157.062 97.486,164.36 91.971,164.36 84.812,162.86 71.721,164.36 69.971,153.062 78.812,150.409 "/>
<polygon fill="#D1D3D4" points="31.486,75.409 30.625,69.082 24.471,63.735 24.471,58.062 33.972,58.062 36.638,63.735 
	45.965,72.86 44.291,78.86 50.812,84.409 55.721,92.735 53.971,99.36 49.139,99.36 52.486,108.062 47.638,111.409 40.096,109.735 
	33.972,103.735 26.221,98.86 26.721,92.062 24.471,83.735 "/>
<polygon fill="#D1D3D4" points="81.486,77.756 78.139,70.756 71.221,65.409 71.221,58.062 75.139,50.11 84.139,50.11 85.139,58.062 
	85.139,63.933 88.486,70.756 94.139,76.082 90.721,82.062 "/>
<polygon fill="#D1D3D4" points="75.139,91.062 71.221,94.409 71.221,102.86 73.18,111.409 69.971,120.11 71.221,127.409 
	78.139,131.36 82.68,127.409 88.486,119.86 90.721,114.062 90.721,111.211 90.721,102.062 82.68,97.756 "/>
<polygon fill="#D1D3D4" points="114.139,91.062 111.471,96.082 114.139,102.062 119.971,97.756 119.971,91.062 "/>
<polygon fill="#D1D3D4" points="63.221,70.756 60.471,77.409 63.221,82.062 69.971,82.062 71.221,74.062 "/>
<circle cx="34.965" cy="69.082" r="1.674"/>
<circle cx="50.812" cy="92.735" r="1.674"/>
<circle cx="32.298" cy="96.082" r="1.674"/>
<circle cx="45.965" cy="86.082" r="1.674"/>
<circle cx="45.965" cy="106.082" r="1.674"/>
<circle cx="75.965" cy="96.082" r="1.674"/>
<circle cx="65.965" cy="76.082" r="1.674"/>
<circle cx="75.812" cy="105.735" r="1.674"/>
<circle cx="85.812" cy="75.735" r="1.674"/>
<circle cx="115.812" cy="95.735" r="1.674"/>
<circle cx="85.812" cy="105.735" r="1.674"/>
<circle cx="75.812" cy="125.735" r="1.674"/>
<circle cx="85.812" cy="115.735" r="1.674"/>
<circle cx="95.812" cy="135.735" r="1.674"/>
<circle cx="95.812" cy="145.735" r="1.674"/>
<circle cx="85.812" cy="145.735" r="1.674"/>
<circle cx="85.812" cy="155.735" r="1.674"/>
<circle cx="75.812" cy="105.735" r="1.674"/>
<circle cx="96.812" cy="159.735" r="1.674"/>
<circle cx="76.812" cy="159.735" r="1.674"/>
<circle cx="86.812" cy="159.735" r="1.674"/>
<circle cx="106.812" cy="149.735" r="1.674"/>
<circle cx="106.812" cy="139.735" r="1.674"/>
<circle cx="76.812" cy="109.735" r="1.674"/>
<circle cx="76.812" cy="59.735" r="1.674"/>
<circle cx="79.812" cy="63.735" r="1.674"/>
<circle cx="79.812" cy="53.735" r="1.674"/>
<circle cx="29.812" cy="63.735" r="1.674"/>
<circle cx="39.812" cy="103.735" r="1.674"/>
<circle cx="29.812" cy="83.735" r="1.674"/>
<circle cx="39.812" cy="93.735" r="1.674"/>
<circle cx="39.812" cy="73.735" r="1.674"/>
<circle fill="#939598" stroke="#FFFFFF" stroke-width="3" stroke-miterlimit="10" cx="85.139" cy="121.186" r="11.074"/>
<circle fill="#939598" stroke="#FFFFFF" stroke-width="2" stroke-miterlimit="10" cx="85.139" cy="121.186" r="5.725"/>
<rect x="7.307" y="188.36" fill="#FFFFFF" stroke="#000000" stroke-miterlimit="10" width="139.359" height="50.693"/>
<rect x="14.471" y="197.36" fill="none" width="126.5" height="34.5"/>
<text transform="matrix(1 0 0 1 14.4707 203.04)"><tspan x="0" y="0" font-family="'MyriadPro-Bold'" font-size="8">Cluster A</tspan><tspan x="0" y="9.601" font-family="'MyriadPro-Regular'" font-size="8">This cluster is in the middle and that’s </tspan><tspan x="0" y="19.2" font-family="'MyriadPro-Regular'" font-size="8">pretty cool if you ask me. Also </tspan><tspan x="0" y="28.8" font-family="'MyriadPro-Regular'" font-size="8">important because...</tspan></text>
</svg>
