<?xml version="1.0" encoding="utf-8"?>
<!-- Generator: Adobe Illustrator 15.1.0, SVG Export Plug-In  -->
<!DOCTYPE svg PUBLIC "-//W3C//DTD SVG 1.1//EN" "http://www.w3.org/Graphics/SVG/1.1/DTD/svg11.dtd" [
	<!ENTITY ns_flows "http://ns.adobe.com/Flows/1.0/">
]>
<svg version="1.1"
	 xmlns="http://www.w3.org/2000/svg" xmlns:xlink="http://www.w3.org/1999/xlink" xmlns:a="http://ns.adobe.com/AdobeSVGViewerExtensions/3.0/"
	 x="0px" y="0px" width="154px" height="258px" viewBox="0 0 154 258" overflow="visible" enable-background="new 0 0 154 258"
	 xml:space="preserve">
<style type="text/css">
<![CDATA[
]]>
</style>
<defs>
</defs>
<rect x="0.5" y="0.5" fill="#D1D3D4" stroke="#9FA1A4" stroke-miterlimit="10" width="152.974" height="257.242"/>
<rect x="7.307" y="7.25" fill="#FFFFFF" stroke="#9FA1A4" stroke-miterlimit="10" width="139.359" height="231.804"/>
<rect x="9.971" y="24.86" fill="#D1D3D4" width="134" height="49.875"/>
<rect x="9.971" y="78.011" fill="#E6E7E8" width="134" height="54.05"/>
<rect x="9.971" y="135.409" fill="#E6E7E8" width="134" height="49.951"/>
<circle cx="34.965" cy="69.082" r="1.674"/>
<circle cx="50.812" cy="92.735" r="1.674"/>
<circle cx="32.298" cy="96.082" r="1.674"/>
<circle cx="45.965" cy="86.082" r="1.674"/>
<circle cx="45.965" cy="106.082" r="1.674"/>
<circle cx="75.965" cy="96.082" r="1.674"/>
<circle cx="65.965" cy="146.082" r="1.674"/>
<circle cx="75.812" cy="105.735" r="1.674"/>
<circle cx="85.812" cy="145.735" r="1.674"/>
<circle cx="115.812" cy="95.735" r="1.674"/>
<circle cx="85.812" cy="105.735" r="1.674"/>
<circle cx="25.812" cy="125.735" r="1.674"/>
<circle cx="35.812" cy="115.735" r="1.674"/>
<circle cx="85.812" cy="85.735" r="1.674"/>
<circle cx="85.812" cy="95.735" r="1.674"/>
<circle cx="35.812" cy="145.735" r="1.674"/>
<circle cx="35.812" cy="155.735" r="1.674"/>
<circle cx="75.812" cy="105.735" r="1.674"/>
<circle cx="126.812" cy="159.735" r="1.674"/>
<circle cx="26.812" cy="159.735" r="1.674"/>
<circle cx="36.812" cy="159.735" r="1.674"/>
<circle cx="107.812" cy="119.735" r="1.674"/>
<circle cx="96.812" cy="89.735" r="1.674"/>
<circle cx="26.812" cy="109.735" r="1.674"/>
<circle cx="76.812" cy="129.735" r="1.674"/>
<circle cx="69.812" cy="153.735" r="1.674"/>
<circle cx="79.812" cy="123.735" r="1.674"/>
<circle cx="29.812" cy="63.735" r="1.674"/>
<circle cx="39.812" cy="103.735" r="1.674"/>
<circle cx="29.812" cy="83.735" r="1.674"/>
<circle cx="39.812" cy="93.735" r="1.674"/>
<circle cx="38.486" cy="44.685" r="1.674"/>
<circle fill="#939598" stroke="#FFFFFF" stroke-width="3" stroke-miterlimit="10" cx="88.139" cy="48.735" r="11.074"/>
<circle fill="#939598" stroke="#FFFFFF" stroke-width="2" stroke-miterlimit="10" cx="88.139" cy="48.736" r="5.725"/>
<rect x="7.307" y="188.36" fill="#FFFFFF" stroke="#000000" stroke-miterlimit="10" width="139.359" height="50.693"/>
<rect x="14.471" y="197.36" fill="none" width="126.5" height="34.5"/>
<text transform="matrix(1 0 0 1 14.4707 203.04)"><tspan x="0" y="0" font-family="'MyriadPro-Bold'" font-size="8">Top Region</tspan><tspan x="0" y="9.601" font-family="'MyriadPro-Regular'" font-size="8">Clearly we have very few points in </tspan><tspan x="0" y="19.2" font-family="'MyriadPro-Regular'" font-size="8">this top region relative to the other </tspan><tspan x="0" y="28.8" font-family="'MyriadPro-Regular'" font-size="8">two, with the middle being most </tspan></text>
</svg>
