<?xml version="1.0" encoding="utf-8"?>
<!-- Generator: Adobe Illustrator 15.1.0, SVG Export Plug-In  -->
<!DOCTYPE svg PUBLIC "-//W3C//DTD SVG 1.1//EN" "http://www.w3.org/Graphics/SVG/1.1/DTD/svg11.dtd" [
	<!ENTITY ns_flows "http://ns.adobe.com/Flows/1.0/">
]>
<svg version="1.1"
	 xmlns="http://www.w3.org/2000/svg" xmlns:xlink="http://www.w3.org/1999/xlink" xmlns:a="http://ns.adobe.com/AdobeSVGViewerExtensions/3.0/"
	 x="0px" y="0px" width="280px" height="315px" viewBox="-0.475 -2.189 280 315"
	 overflow="visible" enable-background="new -0.475 -2.189 280 315" xml:space="preserve">
<defs>
</defs>
<rect x="32.929" y="0.5" fill="#D1D3D4" stroke="#9FA1A4" stroke-miterlimit="10" width="151.596" height="254.925"/>
<rect x="39.676" y="12.854" fill="#FFFFFF" stroke="#9FA1A4" stroke-miterlimit="10" width="138.103" height="229.716"/>
<text transform="matrix(1 0 0 1 47.7354 37.4663)"><tspan x="0" y="0" font-family="'MyriadPro-Bold'" font-size="12">Item A</tspan><tspan x="0" y="14.4" font-family="'MyriadPro-Regular'" font-size="12">Cost: $4,000,000</tspan><tspan x="0" y="28.8" font-family="'MyriadPro-Regular'" font-size="12">Growth: +3</tspan><tspan x="0" y="43.2" font-family="'MyriadPro-Regular'" font-size="12">Cateogory: Agriculture</tspan></text>
<text transform="matrix(1 0 0 1 47.7354 102.7998)"><tspan x="0" y="0" font-family="'MyriadPro-Bold'" font-size="12">Item B</tspan><tspan x="0" y="14.4" font-family="'MyriadPro-Regular'" font-size="12">Cost: $230.34</tspan><tspan x="0" y="28.8" font-family="'MyriadPro-Regular'" font-size="12">Growth: -3</tspan><tspan x="0" y="43.2" font-family="'MyriadPro-Regular'" font-size="12">Cateogory: Finance</tspan></text>
<text transform="matrix(1 0 0 1 47.7354 173.2178)"><tspan x="0" y="0" font-family="'MyriadPro-Bold'" font-size="12">Item C</tspan><tspan x="0" y="14.4" font-family="'MyriadPro-Regular'" font-size="12">Cost: $25.2</tspan><tspan x="0" y="28.8" font-family="'MyriadPro-Regular'" font-size="12">Growth: +1.2</tspan><tspan x="0" y="43.2" font-family="'MyriadPro-Regular'" font-size="12">Cateogory: Education</tspan></text>
<text transform="matrix(1 0 0 1 103.0679 236.1328)" font-family="'MyriadPro-Bold'" font-size="12">...</text>
<path fill="#939598" d="M169.517,201.196c2.264-3.87,0.797-1.643,1.735-4.926c0.938-3.282,0.938-3.282,1.407-10.553
	c0.333-5.163-0.47-1.407-2.814-4.222s-1.78-6.802-1.78-6.802l-9.712-11.961l1.408-10.085c0,0,0.704,3.518-5.16,3.986
	c-5.863,0.47-19.173-7.036-22.222-8.912c-3.049-1.875-25.154-13.837-26.795-21.342c-1.643-7.506,1.172-15.714,1.172-15.714
	s4.222-6.098,11.962-4.925c7.739,1.172,28.143,7.975,33.537,8.443s32.365,0.117,32.365,0.117V91.787c0,0,28.496,28.965,30.255,28.73
	s22.516,25.799,23.923,31.075c1.406,5.276,17.941,66.842,14.071,85.487c-3.869,18.645,0.468,26.385,0.586,28.848
	c0.118,2.462,14.894,41.512,21.578,44.678c6.684,3.166,0,2.447,0,2.447l-152.563-0.219L98.079,254.67h57.694
	c0,0,0-34.301,8.913-41.278"/>
<path fill="#939598" d="M32.996,96.712c0,0-8.443,6.332-12.312,7.036c-3.87,0.704-23.219,5.042-20.404,16.769
	c2.814,11.727,17.238,13.954,19.701,14.071c2.462,0.118,13.016,0,13.016,0V96.712z"/>
<path fill="#939598" d="M32.739,149.13c0,0-12.334,5.277-16.24,10.555c-3.907,5.276-11.294,22.866-9.536,29.199
	c1.759,6.332,8.443,9.499,14.424,8.091c5.98-1.407,15.479-6.684,16.183-7.739s4.831-19.701,0-25.682s-4.831-3.166-4.831-8.795
	S32.739,149.13,32.739,149.13z"/>
<path fill="#939598" d="M32.739,194.915c0,0-14.445,8.096-16.24,17.038c-1.796,8.944-1.444,12.11,2.073,15.276
	c3.518,3.166,16.183,4.573,18.998-1.759s4.222-14.776,1.407-19.701c-2.814-4.926-6.238-6.685-6.238-6.685V194.915z"/>
<polygon fill="#939598" points="104.646,96.712 123.408,96.712 114.027,68.217 "/>
<polygon fill="#939598" points="123.408,144.908 104.646,144.908 114.026,173.404 "/>
<line fill="none" stroke="#000000" stroke-miterlimit="10" x1="16.499" y1="12.854" x2="16.499" y2="242.57"/>
<line fill="none" stroke="#000000" stroke-miterlimit="10" x1="13.999" y1="242.57" x2="19.979" y2="242.57"/>
<line fill="none" stroke="#000000" stroke-miterlimit="10" x1="13.999" y1="12.494" x2="19.979" y2="12.494"/>
</svg>
