<?xml version="1.0" encoding="utf-8"?>
<!-- Generator: Adobe Illustrator 15.1.0, SVG Export Plug-In  -->
<!DOCTYPE svg PUBLIC "-//W3C//DTD SVG 1.1//EN" "http://www.w3.org/Graphics/SVG/1.1/DTD/svg11.dtd" [
	<!ENTITY ns_flows "http://ns.adobe.com/Flows/1.0/">
]>
<svg version="1.1"
	 xmlns="http://www.w3.org/2000/svg" xmlns:xlink="http://www.w3.org/1999/xlink" xmlns:a="http://ns.adobe.com/AdobeSVGViewerExtensions/3.0/"
	 x="0px" y="0px" width="216px" height="362px" viewBox="0.229 0.5 216 362"
	 overflow="visible" enable-background="new 0.229 0.5 216 362" xml:space="preserve">
<defs>
</defs>
<rect x="0.5" y="0.5" fill="#D1D3D4" stroke="#9FA1A4" stroke-miterlimit="10" width="215.458" height="362.317"/>
<rect x="10.088" y="18.059" fill="#FFFFFF" stroke="#9FA1A4" stroke-miterlimit="10" width="196.281" height="326.489"/>
<rect x="26.527" y="63.684" fill="#D1D3D4" stroke="#9FA1A4" stroke-miterlimit="10" width="114.062" height="20.129"/>
<rect x="26.527" y="179.089" fill="#D1D3D4" stroke="#9FA1A4" stroke-miterlimit="10" width="75.482" height="20.128"/>
<rect x="26.526" y="221.359" fill="#D1D3D4" stroke="#9FA1A4" stroke-miterlimit="10" width="45.96" height="20.129"/>
<rect x="26.527" y="267.166" fill="#D1D3D4" stroke="#9FA1A4" stroke-miterlimit="10" width="164.049" height="20.129"/>
<rect x="26.527" y="311.449" fill="#D1D3D4" stroke="#9FA1A4" stroke-miterlimit="10" width="82.023" height="20.129"/>
<text transform="matrix(1 0 0 1 26.5259 42.395)"><tspan x="0" y="0" font-family="'MyriadPro-Regular'" font-size="10.7353">There is so much space here for</tspan><tspan x="0" y="12.882" font-family="'MyriadPro-Regular'" font-size="10.7353">me to write just about anything!</tspan></text>
<text transform="matrix(1 0 0 1 26.5259 106.8071)"><tspan x="0" y="0" font-family="'MyriadPro-Regular'" font-size="10.7353">I can even take an outragously</tspan><tspan x="0" y="12.882" font-family="'MyriadPro-Regular'" font-size="10.7353">large</tspan><tspan x="0" y="25.765" font-family="'MyriadPro-Regular'" font-size="10.7353">amount</tspan><tspan x="0" y="38.647" font-family="'MyriadPro-Regular'" font-size="10.7353">of</tspan><tspan x="0" y="51.529" font-family="'MyriadPro-Regular'" font-size="10.7353">vertical space</tspan><tspan x="0" y="64.412" font-family="'MyriadPro-Regular'" font-size="10.7353">and it still works.</tspan></text>
</svg>
